<svg xmlns="http://www.w3.org/2000/svg" viewBox="0 0 1024 1024"><defs><style>.cls-1{fill:#fff;}</style></defs><g id="Layer_2" data-name="Layer 2"><g id="Layer_1-2" data-name="Layer 1"><path class="cls-1" d="M79,0H526c.09,4,.24,8,.26,12q.21,61,.36,122c0,3-.53,6-.92,10.22-2.76-2-4.4-3-5.9-4.2-11.52-9.33-23-18.73-34.55-28a62.64,62.64,0,0,0-5.89-3.76l-1.34.89V353.51c-2.66-.81-4.38-1.26-6-1.85-32.2-11.36-64.41-22.67-96.55-34.2-5.39-1.93-10.54-2.53-16-.91-2.33.69-4.8.93-8.18,1.54-.2-70.55-.39-140.4-.59-210.26h-2.17V318.91L173.39,354.67V161.3c-2.08.51-3.2.68-4.25,1.06q-41.65,14.88-83.31,29.77c-1.74.61-3.7.61-6.83,1.09Z"/><path class="cls-1" d="M640,0h384V273a26.09,26.09,0,0,0-4-.06q-16.84,2.15-33.68,4.41-70.1,9.36-140.18,18.73c-1.59.21-3.2.25-6.07.46V80.16L700.33,116.87v170a34,34,0,0,1-4.06-2.26c-17.13-14-34.17-28.21-51.39-42.15a12.8,12.8,0,0,1-5.21-11.06c.14-46.82,0-93.64,0-140.47C639.74,60.65,639.9,30.32,640,0Z"/><path d="M640,0c-.1,30.32-.26,60.65-.29,91,0,46.83.1,93.65,0,140.47a12.8,12.8,0,0,0,5.21,11.06c17.22,13.94,34.26,28.1,51.39,42.15a34,34,0,0,0,4.06,2.26v-170L840.12,80.16V296.54c2.87-.21,4.48-.25,6.07-.46q70.09-9.34,140.18-18.73,16.83-2.25,33.68-4.41a26.09,26.09,0,0,1,4,.06v5c-2.13.37-4.25.84-6.39,1.11-46.1,5.73-92.24,11.15-138.3,17.21-76.44,10.06-152.82,20.51-229.22,30.82-8.55,1.15-17.09,2.4-25.52,3.58V403l41.59,14.45v58.47c2.17.61,4,1.25,6,1.66,13.51,2.87,27,5.76,40.57,8.5,5,1,10.18,2.45,15.23,2.27,13.64-.47,27.25-1.68,40.88-2.63q84.72-5.91,169.46-11.84,42.86-3,85.73-5.87v6c-2.29.34-4.58.86-6.88,1-21.59,1.15-43.19,2.22-64.78,3.36-3.91.21-7.81.6-11.62.89v57.62L1024,535v4c-1.32.12-2.64.32-4,.34q-36.74.45-73.46.88c-1.91,0-3.83.22-6,.34v195.1l53.4,3.83c0,.74-.09,1.48-.14,2.23l-53.23-3v10l65.4,5.51V595h18v4h-12.74V754.47L1024,756v4a24.89,24.89,0,0,1-3,0c-18.9-1.87-37.79-3.8-56.69-5.65-7.74-.76-15.51-1.36-23.29-2V819.5c13,1.47,25.43,2.86,37.83,4.28q22.57,2.6,45.14,5.22v5c-11.23-1.36-22.46-2.68-33.68-4.07l-175.9-21.76c-4.58-.56-9.18-1-14.21-1.58v34.63L1024,871v12c-1.16-.09-2.33-.11-3.48-.28-56-8.56-111.89-17.37-167.89-25.65-65.06-9.63-130.24-18.51-195.26-28.43-12-1.83-21.6,3.25-32.74,5.53,0,4.54,0,8.5,0,12.47q.18,88.68.37,177.36h-7V836.36l-39.35,11.45v-30l-5.06-.4c-.16,3.37-.42,6.32-.43,9.26q-.1,29.73-.12,59.44,0,68.93,0,137.85h-3c.3-13,.84-26,.86-38.93q.14-81.18,0-162.35c0-1.93-.35-3.87-.6-6.34l-13.94-1.84c-.16,3.45-.38,6.06-.39,8.67q-.12,97.41-.2,194.81c0,2,.18,4,.28,6h-4c.28-18.47.73-36.94.82-55.42q.39-74.18.51-148.36c0-1.93-.3-3.87-.49-6.25L532,811.08V1024h-7c.11-1.49.32-3,.32-4.47q.16-102.19.29-204.39c0-1.6-.26-3.21-.44-5.21l-88.3-13c-.11,2.08-.24,3.38-.24,4.68q-.17,94.19-.33,188.39c0,11.32-.2,22.64-.3,34h-3c-.07-2.66-.21-5.33-.21-8q.16-105.94.34-211.9v-7.72L385,789.48v6.74q.08,28.49.14,57,.29,78.21.59,156.42c0,6.63.84,7.49,7.12,9.64,4.4,1.51,8.75,3.16,13.12,4.75H370a7.92,7.92,0,0,0-1.66-1.09q-22.84-8.07-45.72-16c-1.13-.39-2.5,0-3.89,0l-1.47,5.41-.72,0c-.38-3-.77-5.93-1.25-9.67a47.29,47.29,0,0,1,4.77,1c17.4,5.73,34.78,11.52,52.19,17.2a32.56,32.56,0,0,0,5.73.82l.69-1.59c-1-1.13-1.77-2.9-3-3.3-22.19-7.18-43.93-15.78-67.68-22.36V1024h-7c.13-7.63.32-15.26.39-22.89.1-10.1.07-10.11-9.27-13.31-3.29-1.13-6.58-2.31-9.94-3.22-1.82-.5-3.78-.47-6.76-.8-.15,13.86-.28,27-.42,40.22h-3v-45l29.15,9.07v-211l-63.76-9.4c-.14,3-.34,5.24-.34,7.52q0,51.73,0,103.48c0,8.51,0,8.55,8.42,10.77,5.41,1.43,10.81,2.91,16.56,4.46V1024h-3V896.89c-5.95-3.7-17.05-6.15-22-4.69V1024h-3q.09-62.44.14-124.89c0-3.37-.52-6.74-.8-10.09L130.71,863.54v38.35l11.41,4.92c0,6.85-.05,13.33,0,19.8q.41,48.69.87,97.39h-4a10.73,10.73,0,0,0,.2-1.48q.06-54.66.08-109.33a35.67,35.67,0,0,0-.72-4.83l-7.95-2c-.16,2.75-.36,4.53-.36,6.32,0,22.13.06,44.27.19,66.4.09,15,.37,29.94.56,44.91h-8q.36-58,.69-115.94a40.21,40.21,0,0,0-.64-4.83l-85-25c-.33,3.36-.72,5.43-.71,7.51,0,12,.27,24,.31,36q.09,26,0,52c0,2.28.58,5.16-4.45,6-.3-34.34.15-68.29.14-102.75L0,867v-3a38.31,38.31,0,0,1,5.38.78c7.2,2.07,14.35,4.33,21.55,6.39a50.7,50.7,0,0,0,6.23.94V839.32L0,832v-4c1.8.3,3.63.48,5.39.92q56.47,14,112.93,28.1c1.51.37,3.1.43,5.74.79V744.68l14.63,1.37V690.26c-1.83-.3-3.44-.65-5.07-.81q-43-4.23-86-8.45c-15.89-1.58-31.77-3.33-47.65-5v-5H10.75V597H0v-2H36.41V570.06H93.5v-98l42.92-5.72V449.14c-11.76.81-23,1.16-34.22,2.45C68.11,455.53,34.06,459.84,0,464v-3l44.39-5.76V437.81L0,431v-6l35.05,5.48v-7.19Q34.67,243.13,34.29,63c0-21-.19-42-.29-63h4q.07,103.82.14,207.64l1.64,1.09,36-12.64c.15-3.37.38-6,.38-8.63q.1-84.74.14-169.48c0-6-.2-12-.31-18h3V193.22c3.13-.48,5.09-.48,6.83-1.09q41.67-14.82,83.31-29.77c1.05-.38,2.17-.55,4.25-1.06V354.67l175.06-35.76V107.84h2.17c.2,69.86.39,139.71.59,210.26,3.38-.61,5.85-.85,8.18-1.54,5.49-1.62,10.64-1,16,.91C407.56,329,439.77,340.3,472,351.66c1.67.59,3.39,1,6,1.85V109.08l1.34-.89a62.64,62.64,0,0,1,5.89,3.76c11.56,9.3,23,18.7,34.55,28,1.5,1.21,3.14,2.24,5.9,4.2.39-4.21.92-7.21.92-10.22q-.11-61-.36-122c0-4-.17-8-.26-12h4c.06,1.83.17,3.66.17,5.49,0,44,.09,88-.25,132-.06,8.12,2.16,14.14,9,18.55,3.66,2.36,7,5.17,10.52,7.78l1.48-.78L553,138.63a111.37,111.37,0,0,1,.54,19.47c-.56,7.09,2.22,11.8,7.67,16.15,21.47,17.14,42.66,34.65,64,52,1.22,1,2.65,1.74,5,3.24.35-3.05.77-5.07.78-7.08q.18-52,.25-104Q631.2,59.21,631,0h3c-.31,31.81-.74,63.62-.88,95.43-.14,32.49,0,65,0,97.49,0,11.33,0,22.66.21,34a40.09,40.09,0,0,0,1.14,6.44l2.3-.3c.13-77.68.5-155.36-.81-233ZM802.53,759.63,659.8,746.33v75.82l267.49-83.94c-.2,2.54-.3,3.73-.41,5.1q-126.24,38.18-251,78.84l.2,1.81,120.16,16.72V802.93l137.15,15.75V739.27c-2.21-2.28-6,.5-7-3.87l7.22-.82V479.14l-197.12,12c0,.43-.06.86-.1,1.29,6.29,1.55,12.29,3.67,19.16,3.37,45.61-2,91.24-3.66,136.87-5.4a29.14,29.14,0,0,1,3.93.36c0,.53-.07,1.06-.11,1.59L719,499.79v26.7l83.56,14c.2,3,.38,5.75.58,8.87H832c-.65,59.62.08,118.86-.52,178.08h-2.19V560h-26.8ZM522.15,561.78V372.63L369.43,319.28V648.7l112.76-2.78V561.78ZM364.72,647.9V319.35L173.6,358.25v208.2h50.09V515.69l97.54-5.59V645.51Zm339-529V315.43L836,297.4V84.83ZM169.66,355.49c1.76-9.54.84-185.81-1.31-189.8L38.49,212.59V431.1l54.06,8.47V371.72ZM483,112.81l-1.76,1.09v241l41.46,14.19V242.4l39.83,24.21V383l24.34,8.82V242.34L627,233.41c.13-.65.26-1.29.38-1.94ZM378.75,1012.58v-224L307.93,778.1c-.14,2.52-.32,4.31-.32,6.11q.08,71.22.17,142.45c0,19.33.16,38.65.07,58,0,4.32,1.53,6.62,5.78,8,20,6.26,40,12.81,59.95,19.21A37.56,37.56,0,0,0,378.75,1012.58ZM525.29,669.71,388.16,681.87v32.28L437,718.84v70.53l88.34,12.9Zm-23.19-4.06c0-.67,0-1.35,0-2L142.92,646.9V747.36l91.18-6.82V667c2.57,0,4.52-.12,6.45,0,31.91,2.14,63.81,4.49,95.74,6.4,16.93,1,34,2.4,50.87,1.63,26.77-1.22,53.47-4.08,80.2-6.31C479,667.81,490.52,666.69,502.1,665.65ZM130.54,751.3v109l103,25.58V767.2ZM95.6,440.22l44.66,6.41v21.74l-3.79,2.32v96.79h33.41V359L95.6,374.42ZM718.45,741.16c16.5-.31,31.81-5.49,47.5-7.59V560.9h-47.5ZM139.23,686V643.42l83.91-2.21v-72l-104.68,2.32V683.79ZM577.47,570.32H485V646.6l88.49,4.07V808.73l5.4.47C578.4,729.38,577.94,650,577.47,570.32Zm96.84-14.7V736.86l40.51,3.33V555.62ZM432.78,726.86,307.84,741.1v29.62l124.94,18ZM594.62,570c.73,81,1.46,161.42,2.19,242.19l22.09,3.17V570ZM798.06,755.7V560.33H769.92V732.55L785,730.33c.07.4.13.81.2,1.21l-15.35,3.11v18.5ZM294.45,643.78V514.19l-42.37,2.41V641.3Zm-57,26.87v69.52l23.81-2V702.68L383.64,714V682.22Zm477.42-138.1-89.74-15.68v47.74h34.12V742.88l11.8,1.11V552.22h43.82ZM653.4,742.62V570H625V740.24Zm-29-416,76-10.57V292.11c-.73-.63-1.23-1.08-1.74-1.5-19.68-16.42-39.42-32.77-59-49.29-5.23-4.4-10.11-2.16-15.22-.64ZM569.94,808.33V652.68c-9.2-.41-18-1-26.78-1.17-33.62-.68-67.14-4.18-100.85-2.61-22.95,1.07-46,.88-68.94,1.32a25.46,25.46,0,0,0-4.58.92c.06.72.11,1.45.17,2.17L556.84,664V806.6Zm-437-239.81V470.38l-35.84,4.43v93.71ZM531.36,668V803.07l21.89,3V666.63ZM37.6,874.14l85.61,25.5v-38L37.6,840.72ZM586.42,499.85V409.47l-23.63,2.25v152.7h13.86V500.77ZM542.91,379.62V563.43h15.88V385.37ZM318.43,645.31V512.75l-21.18,1.38V643.84ZM619.08,498.05V406.38L590.19,409v90.94ZM525.91,373.76V562.61h13.44V378.45ZM618,327.43V240.78l-27.63,5.41v85.15Zm-25.23,484c-.55-80.86-1.09-161-1.63-241.35-1.9-.15-3-.28-4.17-.3-1.64-.05-3.29,0-4.59,0V810.23ZM264.9,738.19l119.1-12c-.23-3.29-.38-5.5-.54-7.78L264.9,706.57ZM115.54,572H96.6V681.63l18.94,1.81ZM663,475.35V419.94l-38.11-13.06v59.59ZM93,572.45H38.49v23H73.2v45.37L93,642.12ZM624.84,743.2v73.08l28.69,4.27V745.64ZM590.23,335.28v70.44l28.4-3v-71.3Zm-31.36-66.37-16-10.38V376.17l16,5.59ZM35.73,673.38V597.49H13.3v73.89Zm213.79-32.67V569.29H226.08v71.42ZM625,510.47l89.94,15.25V497L625,502.31ZM539.07,374.73V256.24l-13.14-7.89V370.19Zm178,116.71v-1.13L625,470.11v27.55Zm-98,24.33-24.41-4.21v52.52h24.41ZM249.71,565.65V516.74l-23.46,1.45v47.46ZM38.44,597.56v76.21L53,675V597.56ZM264.82,744.21v20.12l36.81,5.38V741.15ZM718.69,551.55l81-2.07c-1.37-2-1.73-3.05-2.25-3.13-26.13-4.47-52.28-8.85-78.78-13.3ZM93,681.24V644.6l-19.61-1.3v36.2ZM71.08,597.78H55.68v42.07l15.4.9Zm293.78,54.79c0-.81,0-1.62,0-2.43-56.51-1.77-112.82-9.91-169.55-4.71C251.76,649.76,308.33,650.61,364.86,652.57ZM55.61,642.27V678L71,679.1V643.3Zm535-77.82v-53.6l-9.07-1.37v55Zm28.1,258.69-35.09-4.69v22.16l35.09-10.56Zm99.44-74.9L766,752.82V735.44l-47.83,8.76ZM103.9,447.78l0-.84-56.22-8.59V455Zm482.68-41.53v-11l-23.85-8.53v21.8ZM237.39,760l23.28,3.53V744.57l-23.28,1.89Zm-56-9.25.15,1.31,52,7.33V746.75Zm532.89-2.85a6.72,6.72,0,0,0,.78-1.88,26.8,26.8,0,0,0-.2-3.37l-40.73-3.44v5.12ZM718.94,558h46.94v-3.35H718.62C718.79,556.37,718.87,557.27,718.94,558Zm79.27-4.21H770c.12,1.65.2,2.68.27,3.62H798ZM388.05,725.49l28.38-3-.09-1.21-28.29-2.58Zm231.17-216V502.5L595.15,504l-.06,1.66ZM829,553.06H802.83c.09,1.7.16,2.9.22,4h25.37C828.6,555.66,828.75,554.58,829,553.06Z"/><path class="cls-1" d="M1024,468q-42.87,2.92-85.73,5.87-84.74,5.89-169.46,11.84c-13.63,1-27.24,2.16-40.88,2.63-5,.18-10.2-1.26-15.23-2.27-13.55-2.74-27.06-5.63-40.57-8.5-1.93-.41-3.8-1.05-6-1.66V417.44L624.57,403V330.72c8.43-1.18,17-2.43,25.52-3.58,76.4-10.31,152.78-20.76,229.22-30.82,46.06-6.06,92.2-11.48,138.3-17.21,2.14-.27,4.26-.74,6.39-1.11Z"/><path class="cls-1" d="M625,1024q-.18-88.68-.37-177.36c0-4,0-7.93,0-12.47,11.14-2.28,20.74-7.36,32.74-5.53,65,9.92,130.2,18.8,195.26,28.43,56,8.28,111.93,17.09,167.89,25.65,1.15.17,2.32.19,3.48.28v68c-1.25,2-3.89,4.32-3.49,5.88,1.42,5.54-.28,10.44-1.54,15.56-1.94,7.85-3.67,15.75-5.79,24.9L830.81,964.13c-.24,3.1-.5,5-.52,7q-.18,26.45-.29,52.9Z"/><path class="cls-1" d="M0,676c15.88,1.67,31.76,3.42,47.65,5q43,4.29,86,8.45c1.63.16,3.24.51,5.07.81v55.79l-14.63-1.37V857.81c-2.64-.36-4.23-.42-5.74-.79Q61.85,843,5.39,828.92C3.63,828.48,1.8,828.3,0,828Z"/><path class="cls-1" d="M436,1024c.1-11.32.28-22.64.3-34q.19-94.2.33-188.39c0-1.3.13-2.6.24-4.68l88.3,13c.18,2,.44,3.61.44,5.21q-.12,102.2-.29,204.39c0,1.49-.21,3-.32,4.47Z"/><path class="cls-1" d="M631,0q.11,59.22.2,118.45,0,52-.25,104c0,2-.43,4-.78,7.08-2.31-1.5-3.74-2.25-5-3.24-21.31-17.35-42.5-34.86-64-52-5.45-4.35-8.23-9.06-7.67-16.15a111.37,111.37,0,0,0-.54-19.47L550.94,163l-1.48.78c-3.5-2.61-6.86-5.42-10.52-7.78-6.86-4.41-9.08-10.43-9-18.55.34-44,.22-88,.25-131.95,0-1.83-.11-3.66-.17-5.49Z"/><path class="cls-1" d="M0,867l33.36,10c0,34.46-.44,68.41-.14,102.75,5-.86,4.44-3.74,4.45-6q.09-26,0-52c0-12-.26-24-.31-36,0-2.08.38-4.15.71-7.51l85,25a40.21,40.21,0,0,1,.64,4.83q-.31,58-.69,115.94H37a20.5,20.5,0,0,0-3.58-2.6c-11.11-4.86-22.27-9.61-33.42-14.4Z"/><path class="cls-1" d="M1024,595h-18V754.23l-65.4-5.51v-10l53.23,3c0-.75.1-1.49.14-2.23l-53.4-3.83V540.56c2.13-.12,4-.32,6-.34q36.74-.47,73.46-.88c1.32,0,2.64-.22,4-.34Z"/><path class="cls-1" d="M34,0c.1,21,.24,42,.29,63q.39,180.16.76,360.33v7.19L0,425V0Z"/><path class="cls-1" d="M143,1024q-.44-48.69-.87-97.39c-.06-6.47,0-13,0-19.8l-11.41-4.92V863.54L233.34,889c.28,3.35.8,6.72.8,10.09q0,62.45-.14,124.89Z"/><path class="cls-1" d="M0,464c34.06-4.16,68.11-8.47,102.2-12.41,11.18-1.29,22.46-1.64,34.22-2.45v17.23L93.5,472.09v98H36.41V595H0Z"/><path class="cls-1" d="M262,1024V893.9c-5.75-1.55-11.15-3-16.56-4.46-8.38-2.22-8.42-2.26-8.42-10.77q0-51.74,0-103.48c0-2.28.2-4.57.34-7.52l63.76,9.4v211L272,979.05v45Z"/><path class="cls-1" d="M406,1024c-4.37-1.59-8.72-3.24-13.12-4.75-6.28-2.15-7.09-3-7.12-9.64q-.33-78.21-.59-156.42-.09-28.49-.14-57v-6.74l48.1,6.91v7.72q-.18,105.95-.34,211.9c0,2.66.14,5.33.21,8Z"/><path class="cls-1" d="M573,1024q0-68.93,0-137.85,0-29.71.12-59.44c0-2.94.27-5.89.43-9.26l5.06.4v30L618,836.36V1024Z"/><path class="cls-1" d="M1024,871,800.21,841.22V806.59c5,.56,9.63,1,14.21,1.58l175.9,21.76c11.22,1.39,22.45,2.71,33.68,4.07Z"/><path class="cls-1" d="M76,0c.11,6,.31,12,.31,18q0,84.75-.14,169.48c0,2.63-.23,5.26-.38,8.63l-36,12.64-1.64-1.09Q38.07,103.83,38,0Z"/><path class="cls-1" d="M1006,1024H835V969.35c7.21,1.38,13,2.41,18.82,3.62q62,13,124,26.17c8,1.69,15.94,3.46,23.84,5.47,6.3,1.61,8.1,5.93,5.73,11.68C1006.47,1018.66,1006.45,1021.42,1006,1024Z"/><path class="cls-1" d="M1024,829q-22.57-2.61-45.14-5.22c-12.4-1.42-24.8-2.81-37.83-4.28V752.35c7.78.68,15.55,1.28,23.29,2,18.9,1.85,37.79,3.78,56.69,5.65a24.89,24.89,0,0,0,3,0Z"/><path class="cls-1" d="M1024,535l-83.28,1.85V479.23c3.81-.29,7.71-.68,11.62-.89,21.59-1.14,43.19-2.21,64.78-3.36,2.3-.12,4.59-.64,6.88-1Z"/><path class="cls-1" d="M532,1024V811.08L552.84,814c.19,2.38.5,4.32.49,6.25q-.21,74.19-.51,148.36c-.09,18.48-.54,36.95-.82,55.42Z"/><path class="cls-1" d="M556,1024c-.1-2-.28-4-.28-6q.07-97.41.2-194.81c0-2.61.23-5.22.39-8.67l13.94,1.84c.25,2.47.6,4.41.6,6.34q.06,81.18,0,162.35c0,13-.56,25.95-.86,38.93Z"/><path class="cls-1" d="M237,1024V892.2c4.95-1.46,16.05,1,22,4.69V1024Z"/><path d="M1006,1024c.45-2.58.47-5.34,1.44-7.71,2.37-5.75.57-10.07-5.73-11.68-7.9-2-15.86-3.78-23.84-5.47q-62-13.14-124-26.17c-5.79-1.21-11.61-2.24-18.82-3.62V1024h-5q.13-26.44.29-52.9c0-1.94.28-3.87.52-7l182.37,33.21c2.12-9.15,3.85-17.05,5.79-24.9,1.26-5.12,3-10,1.54-15.56-.4-1.56,2.24-3.9,3.49-5.88v73Z"/><path class="cls-1" d="M1024,756l-12.74-1.53V599H1024Z"/><path class="cls-1" d="M0,832l33.16,7.32v32.79a50.7,50.7,0,0,1-6.23-.94c-7.2-2.06-14.35-4.32-21.55-6.39A38.31,38.31,0,0,0,0,864Z"/><path class="cls-1" d="M308,1024V994.25c23.75,6.58,45.49,15.18,67.68,22.36,1.22.4,2,2.17,3,3.3l-.69,1.59a32.56,32.56,0,0,1-5.73-.82c-17.41-5.68-34.79-11.47-52.19-17.2a47.29,47.29,0,0,0-4.77-1c.48,3.74.87,6.71,1.25,9.67l.72,0,1.47-5.41c1.39,0,2.76-.34,3.89,0q22.89,7.92,45.72,16A7.92,7.92,0,0,1,370,1024Z"/><path class="cls-1" d="M0,431l44.39,6.81v17.43L0,461Z"/><path class="cls-1" d="M131,1024c-.19-15-.47-29.94-.56-44.91-.13-22.13-.15-44.27-.19-66.4,0-1.79.2-3.57.36-6.32l7.95,2a35.67,35.67,0,0,1,.72,4.83q0,54.66-.08,109.33a10.73,10.73,0,0,1-.2,1.48Z"/><path class="cls-1" d="M275,1024c.14-13.18.27-26.36.42-40.22,3,.33,4.94.3,6.76.8,3.36.91,6.65,2.09,9.94,3.22,9.34,3.2,9.37,3.21,9.27,13.31-.07,7.63-.26,15.26-.39,22.89Z"/><path class="cls-1" d="M636,0c1.31,77.69.94,155.37.81,233.05l-2.3.3a40.09,40.09,0,0,1-1.14-6.44c-.17-11.33-.19-22.66-.21-34,0-32.5-.18-65,0-97.49.14-31.81.57-63.62.88-95.43Z"/><path class="cls-1" d="M0,597H10.75v74H0Z"/><path d="M0,1007c11.15,4.79,22.31,9.54,33.42,14.4A20.5,20.5,0,0,1,37,1024H24a38.6,38.6,0,0,0-4.15-2.63c-6.59-3.18-13.23-6.26-19.85-9.37Z"/><path class="cls-1" d="M0,1012c6.62,3.11,13.26,6.19,19.85,9.37A38.6,38.6,0,0,1,24,1024H0Z"/><path class="cls-1" d="M802.53,759.63V560h26.8V727.5h2.19c.6-59.22-.13-118.46.52-178.08h-28.9c-.2-3.12-.38-5.87-.58-8.87l-83.56-14v-26.7l177.23-7.41c0-.53.07-1.06.11-1.59a29.14,29.14,0,0,0-3.93-.36c-45.63,1.74-91.26,3.41-136.87,5.4-6.87.3-12.87-1.82-19.16-3.37,0-.43.07-.86.1-1.29l197.12-12V734.58l-7.22.82c1,4.37,4.8,1.59,7,3.87v79.41L796.24,802.93v37.75L676.08,824l-.2-1.81q125-40.44,251-78.84c.11-1.37.21-2.56.41-5.1L659.8,822.15V746.33Z"/><path class="cls-1" d="M522.15,561.78h-40v84.14L369.43,648.7V319.28l152.72,53.35Z"/><path class="cls-1" d="M364.72,647.9l-43.49-2.39V510.1l-97.54,5.59v50.76H173.6V358.25l191.12-38.9Z"/><path class="cls-1" d="M703.74,118.9,836,84.83V297.4l-132.29,18Z"/><path class="cls-1" d="M169.66,355.49,92.55,371.72v67.85L38.49,431.1V212.59l129.86-46.9C170.5,169.68,171.42,346,169.66,355.49Z"/><path class="cls-1" d="M483,112.81,627.41,231.47c-.12.65-.25,1.29-.38,1.94l-40.12,8.93V391.85L562.57,383V266.61L522.74,242.4V369.08l-41.46-14.19v-241Z"/><path class="cls-1" d="M378.75,1012.58a37.56,37.56,0,0,1-5.17-.78c-20-6.4-39.92-12.95-59.95-19.21-4.25-1.33-5.8-3.63-5.78-8,.09-19.33,0-38.65-.07-58q-.11-71.22-.17-142.45c0-1.8.18-3.59.32-6.11l70.82,10.44Z"/><path class="cls-1" d="M525.29,669.71V802.27L437,789.37V718.84l-48.79-4.69V681.87Z"/><path class="cls-1" d="M502.1,665.65c-11.58,1-23.15,2.16-34.74,3.12-26.73,2.23-53.43,5.09-80.2,6.31-16.9.77-33.94-.62-50.87-1.63-31.93-1.91-63.83-4.26-95.74-6.4-1.93-.13-3.88,0-6.45,0v73.5l-91.18,6.82V646.9l359.23,16.73C502.14,664.3,502.12,665,502.1,665.65Z"/><path class="cls-1" d="M130.54,751.3l103,15.9V885.88l-103-25.58Z"/><path class="cls-1" d="M95.6,440.22v-65.8L169.88,359V567.48H136.47V470.69l3.79-2.32V446.63Z"/><path class="cls-1" d="M718.45,741.16V560.9H766V733.57C750.26,735.67,735,740.85,718.45,741.16Z"/><path class="cls-1" d="M139.23,686l-20.77-2.22V571.53l104.68-2.32v72l-83.91,2.21Z"/><path class="cls-1" d="M577.47,570.32c.47,79.68.93,159.06,1.39,238.88l-5.4-.47V650.67L485,646.6V570.32Z"/><path class="cls-1" d="M674.31,555.62h40.51V740.19l-40.51-3.33Z"/><path class="cls-1" d="M432.78,726.86v61.88l-124.94-18V741.1Z"/><path class="cls-1" d="M594.62,570H618.9V815.33l-22.09-3.17C596.08,731.39,595.35,651,594.62,570Z"/><path class="cls-1" d="M798.06,755.7l-28.23-2.55v-18.5l15.35-3.11c-.07-.4-.13-.81-.2-1.21l-15.06,2.22V560.33h28.14Z"/><path class="cls-1" d="M294.45,643.78l-42.37-2.48V516.6l42.37-2.41Z"/><path class="cls-1" d="M237.49,670.65l146.15,11.57V714L261.3,702.68v35.48l-23.81,2Z"/><path class="cls-1" d="M714.91,532.55v19.67H671.09V744l-11.8-1.11V564.61H625.17V516.87Z"/><path class="cls-1" d="M653.4,742.62,625,740.24V570H653.4Z"/><path class="cls-1" d="M624.35,326.59V240.68c5.11-1.52,10-3.76,15.22.64,19.59,16.52,39.33,32.87,59,49.29.51.42,1,.87,1.74,1.5V316Z"/><path class="cls-1" d="M569.94,808.33l-13.1-1.73V664L369,653.31c-.06-.72-.11-1.45-.17-2.17a25.46,25.46,0,0,1,4.58-.92c23-.44,46-.25,68.94-1.32,33.71-1.57,67.23,1.93,100.85,2.61,8.79.18,17.58.76,26.78,1.17Z"/><path class="cls-1" d="M132.9,568.52H97.06V474.81l35.84-4.43Z"/><path class="cls-1" d="M531.36,668l21.89-1.35V806.08l-21.89-3Z"/><path class="cls-1" d="M37.6,874.14V840.72l85.61,20.88v38Z"/><path class="cls-1" d="M586.42,499.85l-9.77.92v63.65H562.79V411.72l23.63-2.25Z"/><path class="cls-1" d="M542.91,379.62l15.88,5.75V563.43H542.91Z"/><path class="cls-1" d="M318.43,645.31l-21.18-1.47V514.13l21.18-1.38Z"/><path class="cls-1" d="M619.08,498.05l-28.89,1.86V409l28.89-2.59Z"/><path class="cls-1" d="M525.91,373.76l13.44,4.69V562.61H525.91Z"/><path class="cls-1" d="M618,327.43l-27.63,3.91V246.19L618,240.78Z"/><path class="cls-1" d="M592.79,811.47l-10.39-1.24V569.8c1.3,0,3,0,4.59,0,1.14,0,2.27.15,4.17.3C591.7,650.43,592.24,730.61,592.79,811.47Z"/><path class="cls-1" d="M264.9,738.19V706.57l118.56,11.8c.16,2.28.31,4.49.54,7.78Z"/><path class="cls-1" d="M115.54,572V683.44L96.6,681.63V572Z"/><path class="cls-1" d="M663,475.35l-38.11-8.88V406.88L663,419.94Z"/><path class="cls-1" d="M93,572.45v69.67l-19.8-1.26V595.49H38.49v-23Z"/><path class="cls-1" d="M624.84,743.2l28.69,2.44v74.91l-28.69-4.27Z"/><path class="cls-1" d="M590.23,335.28l28.4-3.82v71.3l-28.4,3Z"/><path class="cls-1" d="M558.87,268.91V381.76l-16-5.59V258.53Z"/><path class="cls-1" d="M35.73,673.38l-22.43-2V597.49H35.73Z"/><path class="cls-1" d="M249.52,640.71H226.08V569.29h23.44Z"/><path class="cls-1" d="M625,510.47v-8.16L714.9,497v28.75Z"/><path class="cls-1" d="M539.07,374.73l-13.14-4.54V248.35l13.14,7.89Z"/><path class="cls-1" d="M717.12,491.44,625,497.66V470.11l92.1,20.2Z"/><path class="cls-1" d="M619.17,515.77v48.31H594.76V511.56Z"/><path class="cls-1" d="M249.71,565.65H226.25V518.19l23.46-1.45Z"/><path class="cls-1" d="M38.44,597.56H53V675l-14.53-1.23Z"/><path class="cls-1" d="M264.82,744.21l36.81-3.06v28.56l-36.81-5.38Z"/><path class="cls-1" d="M718.69,551.55v-18.5c26.5,4.45,52.65,8.83,78.78,13.3.52.08.88,1.17,2.25,3.13Z"/><path class="cls-1" d="M93,681.24,73.39,679.5V643.3L93,644.6Z"/><path class="cls-1" d="M71.08,597.78v43l-15.4-.9V597.78Z"/><path class="cls-1" d="M364.86,652.57c-56.53-2-113.1-2.81-169.54-7.14,56.73-5.2,113,2.94,169.55,4.71C364.86,651,364.86,651.76,364.86,652.57Z"/><path class="cls-1" d="M55.61,642.27l15.35,1v35.8L55.61,678Z"/><path class="cls-1" d="M590.59,564.45h-9.07v-55l9.07,1.37Z"/><path class="cls-1" d="M618.69,823.14v6.91L583.6,840.61V818.45Z"/><path class="cls-1" d="M718.13,748.24v-4L766,735.44v17.38Z"/><path class="cls-1" d="M103.9,447.78,47.72,455v-16.6l56.22,8.59Z"/><path class="cls-1" d="M586.58,406.25l-23.85,2.31v-21.8l23.85,8.53Z"/><path class="cls-1" d="M237.39,760V746.46l23.28-1.89v18.94Z"/><path class="cls-1" d="M181.39,750.73l52.15-4v12.62l-52-7.33Z"/><path class="cls-1" d="M714.28,747.88l-40.15-3.57v-5.12l40.73,3.44a26.8,26.8,0,0,1,.2,3.37A6.72,6.72,0,0,1,714.28,747.88Z"/><path class="cls-1" d="M718.94,558c-.07-.71-.15-1.61-.32-3.35h47.26V558Z"/><path class="cls-1" d="M798.21,553.77l-.17,3.62H770.25c-.07-.94-.15-2-.27-3.62Z"/><path class="cls-1" d="M388.05,725.49v-6.78l28.29,2.58.09,1.21Z"/><path class="cls-1" d="M619.22,509.44l-24.13-3.74.06-1.66,24.07-1.54Z"/><path class="cls-1" d="M829,553.06c-.2,1.52-.35,2.6-.53,4H803.05c-.06-1.09-.13-2.29-.22-4Z"/></g></g></svg>