<svg xmlns="http://www.w3.org/2000/svg" viewBox="0 0 365.46 365.46"><g id="Layer_2" data-name="Layer 2"><g id="Layer_1-2" data-name="Layer 1"><path d="M360.43,5h0a17.19,17.19,0,0,0-24.32,0L194.89,146.25a17.19,17.19,0,0,1-24.32,0L29.36,5A17.19,17.19,0,0,0,5,5H5A17.19,17.19,0,0,0,5,29.36L146.25,170.57a17.19,17.19,0,0,1,0,24.32L5,336.11a17.19,17.19,0,0,0,0,24.32H5a17.21,17.21,0,0,0,24.32,0L170.57,219.21a17.19,17.19,0,0,1,24.32,0L336.11,360.43a17.21,17.21,0,0,0,24.32,0h0a17.21,17.21,0,0,0,0-24.32L219.21,194.89a17.19,17.19,0,0,1,0-24.32L360.43,29.36A17.21,17.21,0,0,0,360.43,5Z"/></g></g></svg>