<svg xmlns="http://www.w3.org/2000/svg" viewBox="0 0 666.67 666.67"><defs><style>.cls-1{fill-rule:evenodd;}</style></defs><g id="Layer_2" data-name="Layer 2"><g id="Layer_1-2" data-name="Layer 1"><path class="cls-1" d="M0,133.33A133.34,133.34,0,0,1,133.33,0h400A133.34,133.34,0,0,1,666.67,133.33v400A133.34,133.34,0,0,1,533.33,666.67h-400A133.34,133.34,0,0,1,0,533.33ZM133.33,66.67a66.65,66.65,0,0,0-66.66,66.66v400A66.66,66.66,0,0,0,133.33,600h200V366.67H300A33.34,33.34,0,0,1,300,300h33.33V250A116.68,116.68,0,0,1,450,133.33h20A33.34,33.34,0,0,1,470,200H450a50,50,0,0,0-50,50v50h70a33.34,33.34,0,0,1,0,66.67H400V600H533.33A66.67,66.67,0,0,0,600,533.33v-400a66.66,66.66,0,0,0-66.67-66.66Z"/></g></g></svg>