<svg xmlns="http://www.w3.org/2000/svg" viewBox="0 0 306.08 191.85"><g id="Layer_2" data-name="Layer 2"><g id="Layer_1-2" data-name="Layer 1"><path d="M0,96a13.85,13.85,0,0,1,.31-2.9,7.33,7.33,0,0,1,1.83-3.16Q45.9,46.31,89.5,2.56C91.21.85,93.27.39,95.35,0a7.49,7.49,0,0,1,3.78.88c3.52,1.49,6.21,5.57,5.93,9.1A12,12,0,0,1,102,16.53c-.38.46-.84.85-1.27,1.28L24.62,93.92c-2,2-2,2-.05,4l76.33,76.32a16.06,16.06,0,0,1,3.68,5.68c1.07,2.76.11,5-1,7.24a9.9,9.9,0,0,1-3.6,3.5,7.24,7.24,0,0,1-3.95,1.2,8.67,8.67,0,0,1-5.57-1.68c-.53-.45-1-1-1.49-1.48q-43-43-86.1-86A8.22,8.22,0,0,1,0,96Z"/><path d="M306.06,96.22a15,15,0,0,1-.44,3.16,6.4,6.4,0,0,1-1.48,2.39q-43.77,43.79-87.51,87.6a8.68,8.68,0,0,1-10.9.95,10.27,10.27,0,0,1-4-5.18,7.75,7.75,0,0,1,1.29-8,29.59,29.59,0,0,1,2.76-3.35q37.92-38,75.88-75.92c2-2,2-2-.06-4L205.23,17.59a12.63,12.63,0,0,1-3.79-6.22,6.56,6.56,0,0,1-.29-3.13c.91-3,2.35-5.63,5.39-7.12a9.1,9.1,0,0,1,10.13,1.45Q260.28,46.33,304,89.92C305.78,91.69,306.16,93.7,306.06,96.22Z"/></g></g></svg>