<svg xmlns="http://www.w3.org/2000/svg" viewBox="0 0 616.01 681.67"><defs><style>.cls-1,.cls-2{fill:#fff;}.cls-2{font-size:631.7px;font-family:MongolianBaiti, Mongolian Baiti;}</style></defs><g id="Layer_2" data-name="Layer 2"><g id="Layer_1-2" data-name="Layer 1"><path class="cls-1" d="M616,336.78h-.13q0-69.48,0-139c0-11.66,0-23.33-.64-35-.81-15.27-7.47-27.55-20.71-35.62a130.19,130.19,0,0,0-17.79-9C546,105.38,515.1,92.89,484.38,80.06,434.6,59.27,384.82,38.48,335.19,17.33c-17.54-7.47-34.56-8.15-52.22-.56C258.8,27.15,234.36,36.89,210.07,47Q142.29,75.22,74.54,103.57c-15.05,6.28-30.33,12.09-45.09,19C15.88,128.9,6.2,139.43,2.56,154.28A90.81,90.81,0,0,0,.07,175.51c-.14,67,0,134,0,201,0,42.66.08,85.32-.07,128-.08,25.62,10.6,44.14,34.62,54.31,3.83,1.62,7.55,3.5,11.39,5.12q94.28,40,188.57,79.87c17,7.21,34.14,14.19,51.1,21.53,15.94,6.89,31.61,6.58,47.42-.43,10-4.46,20.33-8.37,30.44-12.68,42.12-18,84.13-36.21,126.34-53.95,29-12.19,58.32-23.68,87.46-35.57,12.4-5.06,23.41-12,30.59-23.83,6.07-10,8-21.09,8.05-32.57Q616.05,421.51,616,336.78ZM591.17,505.42c0,7.24,0,7.26-6.74,4.53L417.72,442.37c-7.43-3-9.82-1.44-9.87,6.52a23.1,23.1,0,0,1,0,4c-1.66,8.9,2.87,13.05,10.68,16.25,49.78,20.41,99.4,41.18,149.08,61.84l8.85,3.67c-8.54,3.51-15.89,6.48-23.2,9.54q-102.35,42.77-204.68,85.54c-8.91,3.72-18,7-26.78,11-9,4.19-17.45,3.84-26.44,0-20-8.61-40.32-16.67-60.42-25.14q-73.67-31.05-147.26-62.28c-14.57-6.17-29.08-12.47-43.62-18.72-.89-.39-1.76-.84-3.48-1.66,2.77-1.16,4.82-2.06,6.91-2.89q75.93-30.13,151.89-60.25c1.7-.68,3.39-1.38,5-2.17a9.86,9.86,0,0,0,2.51-1.61c3-2.81,3-19.09,0-21.95-2.67-2.54-5.57-1.44-8.41-.32-15,5.91-30.05,11.88-45.11,17.73Q91.74,485.49,30,509.38c-1.37.53-2.8.9-4.83,1.54v-5.83l-.09-329c0-7.86.05-8,7.4-5.06q64.82,25.66,129.6,51.39c12.24,4.84,24.55,9.5,36.86,14.18,6.41,2.44,9,.62,9.13-6.34,0-1.66,0-3.33,0-5-.11-11.52,1.51-10.91-10.3-15.62Q121.89,179.33,46,149.13c-1.67-.67-3.3-1.44-5-2.16l-.09-1.12c13.2-5.51,26.38-11.07,39.6-16.53q103-42.52,206-84.95c24.68-10.1,19.33-9.88,43-.17C403,74.38,476.26,105,549.63,135.41c9.06,3.76,18.17,7.39,28.13,11.43-1.87.89-2.91,1.48-4,1.91q-80.16,31-160.33,62c-6.48,2.5-7.16,3.54-7.2,10.29,0,3.17,0,6.33.1,9.5.15,6.66,2.41,8.31,8.85,6.11,6.78-2.31,13.5-4.79,20.18-7.37q75.06-29,150.1-57.95c5.5-2.12,5.54-2.07,5.55,4.09q.12,60.26.22,120.5Q591.24,400.67,591.17,505.42Z"/><text class="cls-2" transform="translate(220.25 544.1)">i</text></g></g></svg>