<svg xmlns="http://www.w3.org/2000/svg" viewBox="0 0 105.04 191.61"><g id="Layer_2" data-name="Layer 2"><g id="Layer_1-2" data-name="Layer 1"><path d="M105,96a15,15,0,0,1-.44,3.15,6.32,6.32,0,0,1-1.48,2.39q-43.77,43.79-87.52,87.6a8.69,8.69,0,0,1-10.89,1,10.36,10.36,0,0,1-4.06-5.19,7.8,7.8,0,0,1,1.29-8,33,33,0,0,1,2.76-3.35q37.94-38,75.89-75.91c2-2,2-2-.06-4L4.19,17.39A12.66,12.66,0,0,1,.4,11.16,6.55,6.55,0,0,1,.11,8C1,5.05,2.46,2.4,5.49.92A9.08,9.08,0,0,1,15.63,2.37Q59.24,46.11,103,89.72C104.74,91.48,105.12,93.49,105,96Z"/></g></g></svg>