<svg xmlns="http://www.w3.org/2000/svg" viewBox="0 0 459.01 412"><defs><style>.cls-1{fill:#f6f3e0;}</style></defs><g id="Layer_2" data-name="Layer 2"><g id="Layer_1-2" data-name="Layer 1"><path class="cls-1" d="M458.83,161.77c0,28.82.5,57.66-.14,86.47-.7,32.21-15.25,56.68-44.57,70.75-9,4.31-15.93,9.38-22.07,17.29-17.38,22.38-42,30.3-69.21,30.83s-54.32.22-81.47.27c-9.67,0-19.34.26-29-.07-4.56-.15-5.69,1.5-5.55,5.75.26,8.49.2,17-.07,25.49a17.9,17.9,0,0,1-2,8c-2.49,4.37-8.45,6.33-13.1,5a11.33,11.33,0,0,1-8.21-10.76c-.24-9-.15-18-.22-27,0-6.41,0-6.42-6.68-6.43-11.67,0-23.33,0-35-.07-9.44-.07-14.28-4.79-14.31-14q-.09-38.49,0-77c0-8.28,4.73-13,13-13,17.33-.05,34.65-.12,52,0,10.33.05,14.84,4.74,14.83,15.08,0,20,0,40-.21,60-.06,4.47,1.05,6.21,5.81,6,9-.37,18-.33,27-.07,4.47.12,6-1.19,6-5.9-.28-35.33-.3-70.65-.36-106,0-11.94,4.74-16.63,16.64-16.51,4.67,0,9.33.2,14,.18a19.43,19.43,0,0,0,3.78-.74,18.54,18.54,0,0,0-2.13-3.06c-19.8-18.82-39.75-37.49-59.44-56.42q-27.19-26.16-53.9-52.81c-3-3-4.7-2.71-7.56.08Q100.8,157.28,44.91,211.28a20,20,0,0,0-2.33,3.51,29.27,29.27,0,0,0,3.8.56c9.67.11,19.33.1,29,.23,12,.15,17.37,5.54,17.36,17.51q0,57-.17,114c0,2.83.08,5.68-.11,8.5-.53,7.64-5.54,12.8-12.11,12.64s-11.23-5.43-11.24-13.3q-.1-54.49-.06-109c0-7.2,0-7.2-7.34-7.19-16,0-32-.06-48,.13-5.78.07-10.11-1.9-12.57-7.17-2.33-5-1.1-9.57,3.82-14.34,11.37-11,22.71-22,34.29-32.83,3.4-3.17,5.12-6.33,5-11.16-.28-14.16-.06-28.32.07-42.49.06-6.24,2.77-10.13,7.95-12,7.26-2.57,14.47,1.37,15.12,9,.62,7.44.07,15,.14,22.45a23.83,23.83,0,0,0,.76,4.22,23.24,23.24,0,0,0,3.56-2.38q38.89-37.79,77.73-75.63c6.5-6.34,13.43-6.77,20.18-.59Q185.62,90.5,201,105.48q54.56,52.86,109,105.84a18,18,0,0,0,3.09,2,29.8,29.8,0,0,0,.49-3.85c0-44,.14-88,0-132-.05-15.56,3.17-30.24,11.55-43.33C340.59,10.07,362.89-2.1,391.43.3,419.77,2.68,440,18.07,452.17,43.77,457,54,458.94,65,459,76.29q0,42.74,0,85.48Zm-23.16-.45c-.14,0-.2-59.64-.52-89.45C435,52.4,420.34,34,400.94,27.61c-18.57-6.13-39.9.47-52.09,16A52.42,52.42,0,0,0,337.51,77q0,85-.13,169.92a82.41,82.41,0,0,0,.82,12c4.35,29.49,33.37,51.65,64.75,39.43,20.06-7.82,32.58-27.27,32.69-50.51C435.78,219,435.67,190.14,435.67,161.32ZM268.49,291.89h-.05c0,15.65.09,31.3-.06,47,0,3.62.62,5.47,4.84,5.42,18-.19,36,.25,53.95-.21,15.78-.4,30-5.51,41.9-16.33a20.38,20.38,0,0,0,2.31-3.09,19.81,19.81,0,0,0-3.42-1.56c-18.08-4.47-31.67-15-41.5-30.63-9.14-14.51-12.87-30.59-13-47.55,0-4-1.13-5.57-5.39-5.49-11.48.22-23,.12-34.47-.1-3.85-.08-5.21,1.13-5.17,5.12C268.61,260.24,268.49,276.07,268.49,291.89Zm-85,23.61c.08,0,.13-16.3.29-24.45.07-3.19-.89-4.47-4.23-4.39-8,.19-16,.19-24,.06-3.34-.05-4.78,1-4.76,4.56q.18,24.21,0,48.41c0,3.6,1.4,4.52,4.75,4.43,7.81-.19,15.64-.22,23.45,0,3.59.1,4.59-1.29,4.52-4.66C183.37,331.47,183.49,323.48,183.49,315.5Z"/><path class="cls-1" d="M398.66,87.85a12.57,12.57,0,0,1-12.85,12.4c-7.54.07-12.81-4.52-13.12-12s-.33-14.95,0-22.41a13.35,13.35,0,0,1,13.48-12.68c7,0,11.8,4.71,12.28,12.32C398.66,69.41,398.79,84.37,398.66,87.85Z"/></g></g></svg>