<svg xmlns="http://www.w3.org/2000/svg" viewBox="0 0 461.71 454.36"><defs><style>.cls-1{fill-rule:evenodd;}</style></defs><g id="Layer_2" data-name="Layer 2"><g id="Layer_1-2" data-name="Layer 1"><path class="cls-1" d="M0,166.75A166.75,166.75,0,1,0,166.75,0,166.75,166.75,0,0,0,0,166.75Zm38.63,0A128.12,128.12,0,1,1,166.75,294.87,128.12,128.12,0,0,1,38.63,166.75Z"/><path class="cls-1" d="M280.2,308.1,394,421.9a25,25,0,0,0,35.25,0h0a25,25,0,0,0,0-35.24l-114-114a166.33,166.33,0,0,0,13.32-21.52L447.26,369.82a49.7,49.7,0,0,1,0,70.08h0a49.7,49.7,0,0,1-70.09,0L258.91,321.64A167.41,167.41,0,0,0,280.2,308.1Z"/></g></g></svg>