{
    "asset" : {
        "generator" : "Khronos glTF Blender I/O v3.3.32",
        "version" : "2.0"
    },
    "scene" : 0,
    "scenes" : [
        {
            "name" : "Scene",
            "nodes" : [
                0,
                1,
                2,
                3
            ]
        }
    ],
    "nodes" : [
        {
            "mesh" : 0,
            "name" : "Plane.006",
            "rotation" : [
                0,
                -0.9999619126319885,
                0,
                0.008726648986339569
            ],
            "scale" : [
                1.540000081062317,
                1.5399999618530273,
                1.540000081062317
            ],
            "translation" : [
                26.903423309326172,
                -2.4037904739379883,
                30.808778762817383
            ]
        },
        {
            "mesh" : 1,
            "name" : "glass1",
            "rotation" : [
                0,
                0.7132505178451538,
                0,
                0.7009092569351196
            ],
            "scale" : [
                0.10000002384185791,
                1.3190802335739136,
                0.5949164628982544
            ],
            "translation" : [
                -26.003389358520508,
                -0.19225597381591797,
                -32.27833938598633
            ]
        },
        {
            "mesh" : 2,
            "name" : "Cube.089",
            "rotation" : [
                0,
                0.7144935131072998,
                0,
                0.6996420621871948
            ],
            "scale" : [
                4.107077598571777,
                3.787531614303589,
                2.319944143295288
            ],
            "translation" : [
                15.489391326904297,
                -0.8506698608398438,
                -0.7573738098144531
            ]
        },
        {
            "mesh" : 3,
            "name" : "Door.002",
            "rotation" : [
                0,
                0.7144935131072998,
                0,
                0.6996420621871948
            ],
            "scale" : [
                4.107077598571777,
                3.787531614303589,
                3.7875359058380127
            ],
            "translation" : [
                15.473457336425781,
                -0.8506698608398438,
                0.19313764572143555
            ]
        }
    ],
    "materials" : [
        {
            "doubleSided" : true,
            "name" : "Material.022",
            "pbrMetallicRoughness" : {
                "baseColorFactor" : [
                    0.12292686104774475,
                    0.12292686104774475,
                    0.12292686104774475,
                    1
                ],
                "metallicFactor" : 0,
                "roughnessFactor" : 0.5
            }
        },
        {
            "doubleSided" : true,
            "name" : "Material.025",
            "pbrMetallicRoughness" : {
                "baseColorFactor" : [
                    0.12292686104774475,
                    0.12292686104774475,
                    0.12292686104774475,
                    1
                ],
                "metallicFactor" : 0,
                "roughnessFactor" : 0.5
            }
        },
        {
            "doubleSided" : true,
            "name" : "Material.024",
            "pbrMetallicRoughness" : {
                "baseColorFactor" : [
                    0.800000011920929,
                    0.800000011920929,
                    0.800000011920929,
                    1
                ],
                "metallicFactor" : 0,
                "roughnessFactor" : 0.5
            }
        }
    ],
    "meshes" : [
        {
            "name" : "Plane.058",
            "primitives" : [
                {
                    "attributes" : {
                        "POSITION" : 0,
                        "NORMAL" : 1,
                        "TEXCOORD_0" : 2
                    },
                    "indices" : 3,
                    "material" : 0
                }
            ]
        },
        {
            "name" : "Cube.133",
            "primitives" : [
                {
                    "attributes" : {
                        "POSITION" : 4,
                        "NORMAL" : 5,
                        "TEXCOORD_0" : 6
                    },
                    "indices" : 7
                }
            ]
        },
        {
            "name" : "Cube.135",
            "primitives" : [
                {
                    "attributes" : {
                        "POSITION" : 8,
                        "NORMAL" : 9,
                        "TEXCOORD_0" : 10
                    },
                    "indices" : 11,
                    "material" : 1
                }
            ]
        },
        {
            "name" : "Cube.134",
            "primitives" : [
                {
                    "attributes" : {
                        "POSITION" : 12,
                        "NORMAL" : 13,
                        "TEXCOORD_0" : 14
                    },
                    "indices" : 15,
                    "material" : 2
                },
                {
                    "attributes" : {
                        "POSITION" : 16,
                        "NORMAL" : 17,
                        "TEXCOORD_0" : 18
                    },
                    "indices" : 19,
                    "material" : 1
                }
            ]
        }
    ],
    "accessors" : [
        {
            "bufferView" : 0,
            "componentType" : 5126,
            "count" : 3378,
            "max" : [
                35.64073944091797,
                2.7368221282958984,
                41.697532653808594
            ],
            "min" : [
                -0.8800817131996155,
                -0.29655542969703674,
                -0.9999919533729553
            ],
            "type" : "VEC3"
        },
        {
            "bufferView" : 1,
            "componentType" : 5126,
            "count" : 3378,
            "type" : "VEC3"
        },
        {
            "bufferView" : 2,
            "componentType" : 5126,
            "count" : 3378,
            "type" : "VEC2"
        },
        {
            "bufferView" : 3,
            "componentType" : 5123,
            "count" : 6468,
            "type" : "SCALAR"
        },
        {
            "bufferView" : 4,
            "componentType" : 5126,
            "count" : 2304,
            "max" : [
                1,
                1,
                88.99774169921875
            ],
            "min" : [
                -654.0733642578125,
                -1,
                -4.928668975830078
            ],
            "type" : "VEC3"
        },
        {
            "bufferView" : 5,
            "componentType" : 5126,
            "count" : 2304,
            "type" : "VEC3"
        },
        {
            "bufferView" : 6,
            "componentType" : 5126,
            "count" : 2304,
            "type" : "VEC2"
        },
        {
            "bufferView" : 7,
            "componentType" : 5123,
            "count" : 3456,
            "type" : "SCALAR"
        },
        {
            "bufferView" : 8,
            "componentType" : 5126,
            "count" : 112,
            "max" : [
                0.37712422013282776,
                0.5683681964874268,
                0.04467445984482765
            ],
            "min" : [
                -0.37712422013282776,
                -0.48877206444740295,
                -0.04467445984482765
            ],
            "type" : "VEC3"
        },
        {
            "bufferView" : 9,
            "componentType" : 5126,
            "count" : 112,
            "type" : "VEC3"
        },
        {
            "bufferView" : 10,
            "componentType" : 5126,
            "count" : 112,
            "type" : "VEC2"
        },
        {
            "bufferView" : 11,
            "componentType" : 5123,
            "count" : 288,
            "type" : "SCALAR"
        },
        {
            "bufferView" : 12,
            "componentType" : 5126,
            "count" : 96,
            "max" : [
                0.5405162572860718,
                0.48356297612190247,
                0.031658753752708435
            ],
            "min" : [
                -0.07721661776304245,
                -0.4028191566467285,
                -0.031658753752708435
            ],
            "type" : "VEC3"
        },
        {
            "bufferView" : 13,
            "componentType" : 5126,
            "count" : 96,
            "type" : "VEC3"
        },
        {
            "bufferView" : 14,
            "componentType" : 5126,
            "count" : 96,
            "type" : "VEC2"
        },
        {
            "bufferView" : 15,
            "componentType" : 5123,
            "count" : 144,
            "type" : "SCALAR"
        },
        {
            "bufferView" : 16,
            "componentType" : 5126,
            "count" : 148,
            "max" : [
                0.4911433160305023,
                0.10825982689857483,
                0.06528127193450928
            ],
            "min" : [
                0.4388929307460785,
                -0.01139134168624878,
                0.021323487162590027
            ],
            "type" : "VEC3"
        },
        {
            "bufferView" : 17,
            "componentType" : 5126,
            "count" : 148,
            "type" : "VEC3"
        },
        {
            "bufferView" : 18,
            "componentType" : 5126,
            "count" : 148,
            "type" : "VEC2"
        },
        {
            "bufferView" : 19,
            "componentType" : 5123,
            "count" : 228,
            "type" : "SCALAR"
        }
    ],
    "bufferViews" : [
        {
            "buffer" : 0,
            "byteLength" : 40536,
            "byteOffset" : 0,
            "target" : 34962
        },
        {
            "buffer" : 0,
            "byteLength" : 40536,
            "byteOffset" : 40536,
            "target" : 34962
        },
        {
            "buffer" : 0,
            "byteLength" : 27024,
            "byteOffset" : 81072,
            "target" : 34962
        },
        {
            "buffer" : 0,
            "byteLength" : 12936,
            "byteOffset" : 108096,
            "target" : 34963
        },
        {
            "buffer" : 0,
            "byteLength" : 27648,
            "byteOffset" : 121032,
            "target" : 34962
        },
        {
            "buffer" : 0,
            "byteLength" : 27648,
            "byteOffset" : 148680,
            "target" : 34962
        },
        {
            "buffer" : 0,
            "byteLength" : 18432,
            "byteOffset" : 176328,
            "target" : 34962
        },
        {
            "buffer" : 0,
            "byteLength" : 6912,
            "byteOffset" : 194760,
            "target" : 34963
        },
        {
            "buffer" : 0,
            "byteLength" : 1344,
            "byteOffset" : 201672,
            "target" : 34962
        },
        {
            "buffer" : 0,
            "byteLength" : 1344,
            "byteOffset" : 203016,
            "target" : 34962
        },
        {
            "buffer" : 0,
            "byteLength" : 896,
            "byteOffset" : 204360,
            "target" : 34962
        },
        {
            "buffer" : 0,
            "byteLength" : 576,
            "byteOffset" : 205256,
            "target" : 34963
        },
        {
            "buffer" : 0,
            "byteLength" : 1152,
            "byteOffset" : 205832,
            "target" : 34962
        },
        {
            "buffer" : 0,
            "byteLength" : 1152,
            "byteOffset" : 206984,
            "target" : 34962
        },
        {
            "buffer" : 0,
            "byteLength" : 768,
            "byteOffset" : 208136,
            "target" : 34962
        },
        {
            "buffer" : 0,
            "byteLength" : 288,
            "byteOffset" : 208904,
            "target" : 34963
        },
        {
            "buffer" : 0,
            "byteLength" : 1776,
            "byteOffset" : 209192,
            "target" : 34962
        },
        {
            "buffer" : 0,
            "byteLength" : 1776,
            "byteOffset" : 210968,
            "target" : 34962
        },
        {
            "buffer" : 0,
            "byteLength" : 1184,
            "byteOffset" : 212744,
            "target" : 34962
        },
        {
            "buffer" : 0,
            "byteLength" : 456,
            "byteOffset" : 213928,
            "target" : 34963
        }
    ],
    "buffers" : [
        {
            "byteLength" : 214384,
            "uri" : "data:application/octet-stream;base64,"
        }
    ]
}
