{
    "asset" : {
        "generator" : "Khronos glTF Blender I/O v3.3.32",
        "version" : "2.0"
    },
    "scene" : 0,
    "scenes" : [
        {
            "name" : "Scene",
            "nodes" : [
                0,
                1,
                2,
                3
            ]
        }
    ],
    "nodes" : [
        {
            "mesh" : 0,
            "name" : "Cube.229",
            "rotation" : [
                0,
                0.00872653629630804,
                0,
                0.9999619126319885
            ],
            "scale" : [
                11.674274444580078,
                2.4782989025115967,
                7.587523460388184
            ],
            "translation" : [
                0.001134634017944336,
                21.2351131439209,
                0.16734075546264648
            ]
        },
        {
            "mesh" : 1,
            "name" : "glass5",
            "rotation" : [
                0,
                0.008726535364985466,
                0,
                0.9999619126319885
            ],
            "scale" : [
                0.10000002384185791,
                2.242384910583496,
                1
            ],
            "translation" : [
                11.484884262084961,
                21.236040115356445,
                2.958085060119629
            ]
        },
        {
            "mesh" : 2,
            "name" : "Components_GalvanizedMetal.006",
            "rotation" : [
                0,
                0.7132505178451538,
                0,
                0.7009091973304749
            ],
            "scale" : [
                1.5351982116699219,
                1.5351982116699219,
                1.5351982116699219
            ],
            "translation" : [
                -23.896806716918945,
                18.774871826171875,
                17.543638229370117
            ]
        },
        {
            "mesh" : 3,
            "name" : "Components_GalvanizedMetal.001",
            "rotation" : [
                0,
                0.7132505178451538,
                0,
                0.7009091973304749
            ],
            "scale" : [
                1.5351982116699219,
                1.5351982116699219,
                1.5351982116699219
            ],
            "translation" : [
                -23.99228858947754,
                18.774871826171875,
                12.073446273803711
            ]
        }
    ],
    "materials" : [
        {
            "doubleSided" : true,
            "name" : "Material.001",
            "pbrMetallicRoughness" : {
                "baseColorFactor" : [
                    0.12292686104774475,
                    0.12292686104774475,
                    0.12292686104774475,
                    1
                ],
                "metallicFactor" : 0,
                "roughnessFactor" : 0.5
            }
        },
        {
            "doubleSided" : true,
            "name" : "Material.045",
            "pbrMetallicRoughness" : {
                "baseColorFactor" : [
                    0.12292686104774475,
                    0.12292686104774475,
                    0.12292686104774475,
                    1
                ],
                "metallicFactor" : 0,
                "roughnessFactor" : 0.5
            }
        },
        {
            "doubleSided" : true,
            "name" : "Material.046",
            "pbrMetallicRoughness" : {
                "baseColorFactor" : [
                    0.12292686104774475,
                    0.12292686104774475,
                    0.12292686104774475,
                    1
                ],
                "metallicFactor" : 0,
                "roughnessFactor" : 0.5
            }
        }
    ],
    "meshes" : [
        {
            "name" : "Cube.127",
            "primitives" : [
                {
                    "attributes" : {
                        "POSITION" : 0,
                        "NORMAL" : 1,
                        "TEXCOORD_0" : 2
                    },
                    "indices" : 3,
                    "material" : 0
                }
            ]
        },
        {
            "name" : "Cube.129",
            "primitives" : [
                {
                    "attributes" : {
                        "POSITION" : 4,
                        "NORMAL" : 5,
                        "TEXCOORD_0" : 6
                    },
                    "indices" : 7
                }
            ]
        },
        {
            "name" : "Mesh.003",
            "primitives" : [
                {
                    "attributes" : {
                        "POSITION" : 8,
                        "NORMAL" : 9,
                        "TEXCOORD_0" : 10
                    },
                    "indices" : 11,
                    "material" : 1
                }
            ]
        },
        {
            "name" : "Mesh.004",
            "primitives" : [
                {
                    "attributes" : {
                        "POSITION" : 12,
                        "NORMAL" : 13,
                        "TEXCOORD_0" : 14
                    },
                    "indices" : 11,
                    "material" : 2
                }
            ]
        }
    ],
    "accessors" : [
        {
            "bufferView" : 0,
            "componentType" : 5126,
            "count" : 568,
            "max" : [
                1,
                1,
                1.0000038146972656
            ],
            "min" : [
                -1,
                -1,
                -0.9999961853027344
            ],
            "type" : "VEC3"
        },
        {
            "bufferView" : 1,
            "componentType" : 5126,
            "count" : 568,
            "type" : "VEC3"
        },
        {
            "bufferView" : 2,
            "componentType" : 5126,
            "count" : 568,
            "type" : "VEC2"
        },
        {
            "bufferView" : 3,
            "componentType" : 5123,
            "count" : 1056,
            "type" : "SCALAR"
        },
        {
            "bufferView" : 4,
            "componentType" : 5126,
            "count" : 384,
            "max" : [
                1.0000009536743164,
                1,
                4.43380069732666
            ],
            "min" : [
                -139.7234344482422,
                -1,
                -10.40906810760498
            ],
            "type" : "VEC3"
        },
        {
            "bufferView" : 5,
            "componentType" : 5126,
            "count" : 384,
            "type" : "VEC3"
        },
        {
            "bufferView" : 6,
            "componentType" : 5126,
            "count" : 384,
            "type" : "VEC2"
        },
        {
            "bufferView" : 7,
            "componentType" : 5123,
            "count" : 576,
            "type" : "SCALAR"
        },
        {
            "bufferView" : 8,
            "componentType" : 5126,
            "count" : 2230,
            "max" : [
                0.8009299635887146,
                1.8685835599899292,
                2.036336660385132
            ],
            "min" : [
                -0.7952632904052734,
                -0.0006899802829138935,
                -2.2996160984039307
            ],
            "type" : "VEC3"
        },
        {
            "bufferView" : 9,
            "componentType" : 5126,
            "count" : 2230,
            "type" : "VEC3"
        },
        {
            "bufferView" : 10,
            "componentType" : 5126,
            "count" : 2230,
            "type" : "VEC2"
        },
        {
            "bufferView" : 11,
            "componentType" : 5123,
            "count" : 2436,
            "type" : "SCALAR"
        },
        {
            "bufferView" : 12,
            "componentType" : 5126,
            "count" : 2230,
            "max" : [
                0.8009299635887146,
                1.8685835599899292,
                2.036336660385132
            ],
            "min" : [
                -0.7952632904052734,
                -0.0006899802829138935,
                -2.2996160984039307
            ],
            "type" : "VEC3"
        },
        {
            "bufferView" : 13,
            "componentType" : 5126,
            "count" : 2230,
            "type" : "VEC3"
        },
        {
            "bufferView" : 14,
            "componentType" : 5126,
            "count" : 2230,
            "type" : "VEC2"
        }
    ],
    "bufferViews" : [
        {
            "buffer" : 0,
            "byteLength" : 6816,
            "byteOffset" : 0,
            "target" : 34962
        },
        {
            "buffer" : 0,
            "byteLength" : 6816,
            "byteOffset" : 6816,
            "target" : 34962
        },
        {
            "buffer" : 0,
            "byteLength" : 4544,
            "byteOffset" : 13632,
            "target" : 34962
        },
        {
            "buffer" : 0,
            "byteLength" : 2112,
            "byteOffset" : 18176,
            "target" : 34963
        },
        {
            "buffer" : 0,
            "byteLength" : 4608,
            "byteOffset" : 20288,
            "target" : 34962
        },
        {
            "buffer" : 0,
            "byteLength" : 4608,
            "byteOffset" : 24896,
            "target" : 34962
        },
        {
            "buffer" : 0,
            "byteLength" : 3072,
            "byteOffset" : 29504,
            "target" : 34962
        },
        {
            "buffer" : 0,
            "byteLength" : 1152,
            "byteOffset" : 32576,
            "target" : 34963
        },
        {
            "buffer" : 0,
            "byteLength" : 26760,
            "byteOffset" : 33728,
            "target" : 34962
        },
        {
            "buffer" : 0,
            "byteLength" : 26760,
            "byteOffset" : 60488,
            "target" : 34962
        },
        {
            "buffer" : 0,
            "byteLength" : 17840,
            "byteOffset" : 87248,
            "target" : 34962
        },
        {
            "buffer" : 0,
            "byteLength" : 4872,
            "byteOffset" : 105088,
            "target" : 34963
        },
        {
            "buffer" : 0,
            "byteLength" : 26760,
            "byteOffset" : 109960,
            "target" : 34962
        },
        {
            "buffer" : 0,
            "byteLength" : 26760,
            "byteOffset" : 136720,
            "target" : 34962
        },
        {
            "buffer" : 0,
            "byteLength" : 17840,
            "byteOffset" : 163480,
            "target" : 34962
        }
    ],
    "buffers" : [
        {
            "byteLength" : 181320,
            "uri" : "data:application/octet-stream;base64,"
        }
    ]
}
