{
    "asset" : {
        "generator" : "Khronos glTF Blender I/O v3.3.32",
        "version" : "2.0"
    },
    "scene" : 0,
    "scenes" : [
        {
            "name" : "Scene",
            "nodes" : [
                0,
                1,
                2
            ]
        }
    ],
    "nodes" : [
        {
            "mesh" : 0,
            "name" : "Plane.005",
            "rotation" : [
                0,
                -0.9999619126319885,
                0,
                0.008726648986339569
            ],
            "scale" : [
                1.540000081062317,
                1.5399999618530273,
                1.540000081062317
            ],
            "translation" : [
                26.903423309326172,
                7.7239089012146,
                30.808778762817383
            ]
        },
        {
            "mesh" : 1,
            "name" : "Cube.150",
            "rotation" : [
                0,
                0.008726535364985466,
                0,
                0.9999619126319885
            ],
            "scale" : [
                2.7123429775238037,
                1.984153151512146,
                4.374169826507568
            ],
            "translation" : [
                -9.238556861877441,
                9.962190628051758,
                0.13962650299072266
            ]
        },
        {
            "mesh" : 2,
            "name" : "Cube.243",
            "rotation" : [
                0,
                0.7132505178451538,
                0,
                0.7009092569351196
            ],
            "scale" : [
                1.540000081062317,
                1.5399999618530273,
                0.15272976458072662
            ],
            "translation" : [
                18.50846290588379,
                8.991308212280273,
                23.665687561035156
            ]
        }
    ],
    "materials" : [
        {
            "doubleSided" : true,
            "name" : "Material.001",
            "pbrMetallicRoughness" : {
                "baseColorFactor" : [
                    0.12292686104774475,
                    0.12292686104774475,
                    0.12292686104774475,
                    1
                ],
                "metallicFactor" : 0,
                "roughnessFactor" : 0.5
            }
        },
        {
            "doubleSided" : true,
            "name" : "Material.082",
            "pbrMetallicRoughness" : {
                "baseColorFactor" : [
                    0.800000011920929,
                    0.800000011920929,
                    0.800000011920929,
                    1
                ],
                "metallicFactor" : 0,
                "roughnessFactor" : 0.5
            }
        }
    ],
    "meshes" : [
        {
            "name" : "Plane.067",
            "primitives" : [
                {
                    "attributes" : {
                        "POSITION" : 0,
                        "NORMAL" : 1,
                        "TEXCOORD_0" : 2
                    },
                    "indices" : 3,
                    "material" : 0
                }
            ]
        },
        {
            "name" : "Cube.270",
            "primitives" : [
                {
                    "attributes" : {
                        "POSITION" : 4,
                        "NORMAL" : 5,
                        "TEXCOORD_0" : 6
                    },
                    "indices" : 7
                }
            ]
        },
        {
            "name" : "Cube.273",
            "primitives" : [
                {
                    "attributes" : {
                        "POSITION" : 8,
                        "NORMAL" : 9,
                        "TEXCOORD_0" : 10
                    },
                    "indices" : 11,
                    "material" : 1
                }
            ]
        }
    ],
    "accessors" : [
        {
            "bufferView" : 0,
            "componentType" : 5126,
            "count" : 228,
            "max" : [
                35.64080047607422,
                0,
                41.6975212097168
            ],
            "min" : [
                -0.8800697326660156,
                -0.29655298590660095,
                -1.0000001192092896
            ],
            "type" : "VEC3"
        },
        {
            "bufferView" : 1,
            "componentType" : 5126,
            "count" : 228,
            "type" : "VEC3"
        },
        {
            "bufferView" : 2,
            "componentType" : 5126,
            "count" : 228,
            "type" : "VEC2"
        },
        {
            "bufferView" : 3,
            "componentType" : 5123,
            "count" : 564,
            "type" : "SCALAR"
        },
        {
            "bufferView" : 4,
            "componentType" : 5126,
            "count" : 24,
            "max" : [
                1,
                1,
                1
            ],
            "min" : [
                -1,
                -1,
                -1
            ],
            "type" : "VEC3"
        },
        {
            "bufferView" : 5,
            "componentType" : 5126,
            "count" : 24,
            "type" : "VEC3"
        },
        {
            "bufferView" : 6,
            "componentType" : 5126,
            "count" : 24,
            "type" : "VEC2"
        },
        {
            "bufferView" : 7,
            "componentType" : 5123,
            "count" : 36,
            "type" : "SCALAR"
        },
        {
            "bufferView" : 8,
            "componentType" : 5126,
            "count" : 664,
            "max" : [
                36.42800521850586,
                2.437030792236328,
                9.87215805053711
            ],
            "min" : [
                -5.229389667510986,
                -1,
                -233.3523712158203
            ],
            "type" : "VEC3"
        },
        {
            "bufferView" : 9,
            "componentType" : 5126,
            "count" : 664,
            "type" : "VEC3"
        },
        {
            "bufferView" : 10,
            "componentType" : 5126,
            "count" : 664,
            "type" : "VEC2"
        },
        {
            "bufferView" : 11,
            "componentType" : 5123,
            "count" : 1116,
            "type" : "SCALAR"
        }
    ],
    "bufferViews" : [
        {
            "buffer" : 0,
            "byteLength" : 2736,
            "byteOffset" : 0,
            "target" : 34962
        },
        {
            "buffer" : 0,
            "byteLength" : 2736,
            "byteOffset" : 2736,
            "target" : 34962
        },
        {
            "buffer" : 0,
            "byteLength" : 1824,
            "byteOffset" : 5472,
            "target" : 34962
        },
        {
            "buffer" : 0,
            "byteLength" : 1128,
            "byteOffset" : 7296,
            "target" : 34963
        },
        {
            "buffer" : 0,
            "byteLength" : 288,
            "byteOffset" : 8424,
            "target" : 34962
        },
        {
            "buffer" : 0,
            "byteLength" : 288,
            "byteOffset" : 8712,
            "target" : 34962
        },
        {
            "buffer" : 0,
            "byteLength" : 192,
            "byteOffset" : 9000,
            "target" : 34962
        },
        {
            "buffer" : 0,
            "byteLength" : 72,
            "byteOffset" : 9192,
            "target" : 34963
        },
        {
            "buffer" : 0,
            "byteLength" : 7968,
            "byteOffset" : 9264,
            "target" : 34962
        },
        {
            "buffer" : 0,
            "byteLength" : 7968,
            "byteOffset" : 17232,
            "target" : 34962
        },
        {
            "buffer" : 0,
            "byteLength" : 5312,
            "byteOffset" : 25200,
            "target" : 34962
        },
        {
            "buffer" : 0,
            "byteLength" : 2232,
            "byteOffset" : 30512,
            "target" : 34963
        }
    ],
    "buffers" : [
        {
            "byteLength" : 32744,
            "uri" : "data:application/octet-stream;base64,"
        }
    ]
}
