<svg xmlns="http://www.w3.org/2000/svg" viewBox="0 0 722.89 722.89"><defs><style>.cls-1{fill:#f6f3e0;}.cls-2{fill:#e3720c;}.cls-3{fill:#1d1619;}</style></defs><g id="Layer_2" data-name="Layer 2"><g id="Layer_1-2" data-name="Layer 1"><rect class="cls-1" width="722.89" height="722.89" rx="361.44"/><path class="cls-2" d="M573.09,320.63c0,28.82.49,57.66-.14,86.47-.7,32.21-15.25,56.68-44.57,70.75-9,4.31-15.93,9.38-22.07,17.29-17.38,22.38-42,30.3-69.21,30.83s-54.32.22-81.48.27c-9.66,0-19.33.25-29-.07-4.56-.15-5.69,1.5-5.56,5.75.27,8.49.21,17-.06,25.48a17.79,17.79,0,0,1-2,8.05c-2.48,4.37-8.44,6.33-13.09,5a11.33,11.33,0,0,1-8.21-10.76c-.24-9-.15-18-.22-27,0-6.41,0-6.42-6.68-6.43-11.67,0-23.33,0-35-.07-9.45-.07-14.29-4.79-14.31-14q-.09-38.49,0-77c0-8.28,4.73-13,13-13,17.32-.05,34.65-.12,52,0,10.32.05,14.84,4.73,14.83,15.08,0,20,0,40-.21,60-.06,4.47,1.05,6.21,5.81,6,9-.37,18-.33,27-.08,4.47.13,6-1.18,6-5.9-.28-35.32-.3-70.64-.36-106,0-11.94,4.74-16.63,16.64-16.51,4.67,0,9.33.2,14,.18a19.19,19.19,0,0,0,3.77-.74,18.49,18.49,0,0,0-2.12-3.06c-19.8-18.82-39.75-37.49-59.44-56.42q-27.19-26.16-53.9-52.81c-3.05-3-4.7-2.71-7.57.07q-55.73,54.16-111.62,108.16a19.63,19.63,0,0,0-2.33,3.51,29.27,29.27,0,0,0,3.8.56c9.66.11,19.33.1,29,.23,12,.15,17.37,5.54,17.36,17.5q0,57-.17,114c0,2.83.08,5.68-.11,8.5-.53,7.64-5.54,12.8-12.12,12.63s-11.22-5.42-11.23-13.3q-.11-54.48-.06-109c0-7.2,0-7.2-7.34-7.19-16,0-32-.06-48,.13-5.78.07-10.11-1.9-12.57-7.17-2.33-5-1.11-9.57,3.82-14.34,11.37-11,22.71-22,34.29-32.83,3.4-3.17,5.12-6.33,5-11.16-.28-14.16-.06-28.33.07-42.49.06-6.24,2.77-10.13,8-12,7.26-2.57,14.47,1.37,15.11,9,.63,7.44.08,15,.15,22.45a24,24,0,0,0,.76,4.22,23.74,23.74,0,0,0,3.56-2.38q38.9-37.79,77.72-75.63c6.51-6.34,13.44-6.77,20.19-.59q15.84,14.51,31.26,29.49,54.56,52.86,109,105.84a18,18,0,0,0,3.09,2,30,30,0,0,0,.49-3.85c0-44,.14-88,0-132-.05-15.56,3.17-30.24,11.55-43.33,15.41-24.08,37.71-36.24,66.25-33.84,28.34,2.38,48.56,17.77,60.74,43.47,4.85,10.25,6.77,21.22,6.78,32.52q0,42.73,0,85.48Zm-23.16-.45c-.14,0-.2-59.64-.52-89.45-.2-19.47-14.81-37.86-34.21-44.26-18.57-6.13-39.9.47-52.09,16a52.42,52.42,0,0,0-11.34,33.38q0,85-.13,169.92a81,81,0,0,0,.82,12c4.35,29.49,33.37,51.65,64.74,39.43,20.07-7.82,32.59-27.27,32.7-50.51C550,377.82,549.93,349,549.93,320.18ZM382.75,450.75h-.05c0,15.65.09,31.3-.06,47,0,3.62.62,5.47,4.84,5.42,18-.19,36,.24,53.95-.21,15.78-.4,30-5.51,41.9-16.33a20.38,20.38,0,0,0,2.31-3.09,20.16,20.16,0,0,0-3.42-1.56c-18.08-4.47-31.68-15-41.5-30.63-9.14-14.51-12.87-30.59-13-47.55,0-4-1.12-5.57-5.38-5.49-11.49.22-23,.12-34.47-.11-3.85-.07-5.22,1.14-5.17,5.12C382.87,419.1,382.75,434.93,382.75,450.75Zm-85,23.61c.08,0,.12-16.3.29-24.45.07-3.19-.89-4.48-4.23-4.39-8,.19-16,.19-23.95.06-3.35-.05-4.79,1-4.76,4.56q.18,24.21,0,48.41c0,3.6,1.4,4.52,4.75,4.43,7.81-.19,15.64-.22,23.45,0,3.59.1,4.59-1.3,4.52-4.66C297.63,490.33,297.75,482.34,297.75,474.36Z"/><path class="cls-2" d="M512.92,246.71a12.57,12.57,0,0,1-12.85,12.4c-7.54.07-12.81-4.52-13.12-12s-.33-14.95,0-22.41A13.37,13.37,0,0,1,500.4,212c7,0,11.8,4.71,12.27,12.32C512.92,228.27,513,243.23,512.92,246.71Z"/><path class="cls-3" d="M566.06,313.79c0,28.83.5,57.66-.13,86.48-.71,32.2-15.26,56.68-44.58,70.74-9,4.32-15.93,9.39-22.07,17.3-17.37,22.38-42,30.29-69.21,30.83s-54.31.21-81.47.26c-9.66,0-19.34.26-29-.06-4.55-.16-5.68,1.5-5.55,5.74.26,8.49.2,17-.06,25.49a18.09,18.09,0,0,1-2,8c-2.48,4.37-8.45,6.32-13.1,5a11.35,11.35,0,0,1-8.21-10.76c-.23-9-.15-18-.21-27-.05-6.41-.06-6.42-6.69-6.44-11.66,0-23.33,0-35-.07-9.44-.07-14.28-4.79-14.3-14q-.11-38.49,0-77c0-8.29,4.74-13,13-13,17.33-.06,34.66-.13,52,0,10.32,0,14.83,4.73,14.82,15.07,0,20,0,40-.21,60-.05,4.47,1,6.22,5.82,6,9-.36,18-.32,27-.07,4.48.12,6-1.19,6-5.9-.28-35.32-.29-70.65-.36-106,0-11.93,4.74-16.62,16.65-16.51,4.66.05,9.32.21,14,.19a20.1,20.1,0,0,0,3.77-.74,17.69,17.69,0,0,0-2.12-3.06c-19.81-18.82-39.75-37.49-59.44-56.43Q298,281.74,271.33,255.07c-3.05-3-4.7-2.7-7.56.08Q208,309.32,152.15,363.3a18.94,18.94,0,0,0-2.33,3.51,26,26,0,0,0,3.8.56c9.66.11,19.32.11,29,.23,11.95.16,17.36,5.54,17.36,17.51q0,57-.18,114c0,2.83.09,5.67-.11,8.49-.53,7.64-5.53,12.8-12.11,12.64s-11.23-5.43-11.24-13.3q-.09-54.48-.06-109c0-7.2,0-7.2-7.34-7.19-16,0-32-.06-48,.14-5.78.06-10.11-1.9-12.57-7.18-2.34-5-1.11-9.56,3.82-14.33,11.37-11,22.71-22.05,34.28-32.83,3.41-3.17,5.12-6.34,5-11.17-.28-14.15-.07-28.32.06-42.48.06-6.25,2.77-10.14,8-12,7.25-2.57,14.47,1.37,15.11,9,.62,7.44.08,15,.14,22.46a25.68,25.68,0,0,0,.76,4.21,22.63,22.63,0,0,0,3.57-2.38Q218,266.46,256.83,228.6c6.5-6.33,13.43-6.77,20.18-.59q15.86,14.52,31.26,29.49,54.56,52.88,109,105.84a17.51,17.51,0,0,0,3.1,2,29.58,29.58,0,0,0,.49-3.85c0-44,.14-88,0-132-.05-15.56,3.18-30.24,11.56-43.33,15.4-24.07,37.71-36.24,66.24-33.84,28.35,2.39,48.57,17.77,60.74,43.47,4.86,10.25,6.77,21.22,6.78,32.53q0,42.74,0,85.47Zm-23.15-.45c-.15,0-.21-59.64-.52-89.45-.21-19.47-14.82-37.85-34.22-44.26-18.57-6.13-39.9.48-52.09,16A52.38,52.38,0,0,0,444.75,229q-.06,85-.14,169.92a82.37,82.37,0,0,0,.82,11.95c4.35,29.49,33.37,51.65,64.75,39.43,20.07-7.82,32.58-27.27,32.69-50.51C543,371,542.91,342.16,542.91,313.34ZM375.73,443.91h-.05c0,15.65.08,31.31-.07,47,0,3.63.62,5.47,4.84,5.43,18-.19,36,.24,53.95-.22,15.78-.4,30-5.5,41.9-16.33a21,21,0,0,0,2.32-3.08,19.8,19.8,0,0,0-3.42-1.57c-18.09-4.47-31.68-15-41.51-30.62-9.14-14.52-12.87-30.59-13-47.56,0-4-1.13-5.57-5.39-5.48-11.48.21-23,.11-34.46-.11-3.85-.07-5.22,1.14-5.17,5.12C375.84,412.27,375.73,428.09,375.73,443.91Zm-85,23.61c.08,0,.13-16.3.3-24.45.06-3.18-.9-4.47-4.24-4.39-8,.2-16,.19-23.95.06-3.34-.05-4.78,1-4.76,4.56q.18,24.21,0,48.41c0,3.61,1.4,4.52,4.75,4.44,7.82-.2,15.64-.23,23.45,0,3.59.1,4.59-1.3,4.52-4.67C290.61,483.49,290.72,475.51,290.72,467.52Z"/><path class="cls-3" d="M505.89,239.88a12.55,12.55,0,0,1-12.84,12.39c-7.54.08-12.82-4.52-13.13-12s-.32-14.95,0-22.41a13.37,13.37,0,0,1,13.49-12.68c6.95,0,11.8,4.72,12.27,12.32C505.9,221.43,506,236.39,505.89,239.88Z"/></g></g></svg>